# xmcd
#
# Track frame offsets: 
#        150
#        9039
#        21498
#        35874
#        52026
#        60756
#
# Disc length: 986 seconds
#
# Revision: 0
# Processed by: cddbd v1.5.2PL0 Copyright (c) Steve Scherf et al.
# Submitted via: ExactAudioCopy v0.99pb5
#
DISCID=4303d806
DTITLE=Frank N Dank - FDR
DYEAR=2008
DGENRE=Hip-Hop
TTITLE0=Intro
TTITLE1=Love Is Here
TTITLE2=Make It Rain
TTITLE3=Puff Puff Pass
TTITLE4=Turn It Up
TTITLE5=Only For Players (feat. The Dramatics)
EXTD=
EXTT0=
EXTT1=
EXTT2=
EXTT3=
EXTT4=
EXTT5=
PLAYORDER=
